<svg width="96" height="96" xmlns="http://www.w3.org/2000/svg" xmlns:xlink="http://www.w3.org/1999/xlink" overflow="hidden"><defs><clipPath id="clip0"><rect x="0" y="0" width="96" height="96"/></clipPath></defs><g clip-path="url(#clip0)"><path d="M19.5 31.9 21.2 19.9 25.1 25.1 28.3 22.7 20.3 12 9.7 20 12.1 23.2 17.3 19.3 15.5 31.3 14.6 38.1 12.8 50.1 9 45 5.8 47.4 13.7 58 24.4 50 22 46.8 16.8 50.7 18.5 38.7Z" fill="#558ED5"/><path d="M88.1 70.2C85.5 64.4 91.9 60.9 86.9 49.9 85.7 47.3 81.8 38.6 80.2 35.1 79 32.4 75.8 31.1 73 32.4 71.8 32.9 70.9 33.8 70.3 35 70.3 35.1 70.2 35.1 70.1 35 69.9 34.5 69.7 34.1 69.3 33.7 68.3 32.4 66.8 31.6 65.2 31.6 62.9 31.5 60.9 32.9 60 34.9 60 35 59.9 35 59.8 34.9 58 32.6 54.7 32.2 52.3 34 50.9 35 50.1 37 50.5 39 50.5 39.1 50.4 39.1 50.4 39L41.8 19.8C40.8 17.5 38.1 16.3 35.8 17.3 33.5 18.3 32.3 21 33.3 23.3 33.3 23.4 33.4 23.4 33.4 23.5L50.7 62.2 48 62.8 35.8 54.4C33.8 53 31 53.3 29.5 55.1 27.7 57.2 28.2 60.4 30.4 61.9L49.4 74.9C49.9 75.2 50.4 75.5 51 75.6L62.9 78.4 63.3 78.9 66.1 85.1 90 74.3 88.1 70.2Z" fill="#558ED5"/></g></svg>